<svg width="50" height="50" viewBox="0 0 50 50" fill="none" xmlns="http://www.w3.org/2000/svg">
<path d="M24 41.9314C21.6974 45.578 17.6315 48 13 48C5.8203 48 0 42.1797 0 35C0 27.8203 5.8203 22 13 22C17.7611 22 21.752 24.6222 24 28.3066C21.4353 32.5327 21.2482 37.8809 24 41.9314Z" fill="#0A0512"/>
<path d="M36.9846 22C41.2973 22.0203 45.5059 24.1849 47.9602 28.1126C51.7649 34.2014 49.9133 42.2216 43.8246 46.0262C37.7358 49.8309 29.7157 47.9793 25.911 41.8905C23.388 37.8529 23.4969 33.0789 25.4302 29.22C30.3732 29.1555 35.0078 26.4801 36.9846 22Z" fill="#D68605"/>
<path d="M13.3884 19.8398C11.4304 15.9971 11.426 11.2646 13.7926 7.28334C17.4613 1.11172 25.4385 -0.9173 31.6101 2.75139C37.7817 6.42008 39.8107 14.3972 36.142 20.5688C33.7092 24.6614 29.4159 26.7521 25.1002 26.8018C22.7779 22.4377 18.2763 19.5441 13.3884 19.8398Z" fill="#983903"/>
</svg>
