<svg width="297" height="50" viewBox="0 0 297 50" fill="none" xmlns="http://www.w3.org/2000/svg">
<path d="M24 41.9314C21.6974 45.578 17.6315 48 13 48C5.8203 48 0 42.1797 0 35C0 27.8203 5.8203 22 13 22C17.7611 22 21.752 24.6222 24 28.3066C21.4353 32.5327 21.2482 37.8809 24 41.9314Z" fill="#0A0512"/>
<path d="M36.9846 22C41.2973 22.0203 45.5059 24.1849 47.9602 28.1126C51.7649 34.2014 49.9133 42.2216 43.8246 46.0262C37.7358 49.8309 29.7157 47.9793 25.911 41.8905C23.388 37.8529 23.4969 33.0789 25.4302 29.22C30.3732 29.1555 35.0078 26.4801 36.9846 22Z" fill="#D68605"/>
<path d="M13.3884 19.8398C11.4304 15.9971 11.426 11.2646 13.7926 7.28334C17.4613 1.11172 25.4385 -0.9173 31.6101 2.75139C37.7817 6.42008 39.8107 14.3972 36.142 20.5688C33.7092 24.6614 29.4159 26.7521 25.1002 26.8018C22.7779 22.4377 18.2763 19.5441 13.3884 19.8398Z" fill="#983903"/>
<g clip-path="url(#clip0_10_388)">
<path d="M76.078 37.094C73.944 37.094 72.008 36.665 70.27 35.807C68.554 34.927 67.19 33.629 66.178 31.913C65.166 30.197 64.66 28.096 64.66 25.61C64.66 23.718 64.968 22.057 65.584 20.627C66.2 19.197 67.036 17.998 68.092 17.03C69.17 16.062 70.402 15.336 71.788 14.852C73.196 14.368 74.681 14.126 76.243 14.126C77.497 14.126 78.652 14.269 79.708 14.555C80.764 14.841 81.754 15.237 82.678 15.743L82.81 19.802H82.48L80.83 17.162C80.61 16.744 80.368 16.37 80.104 16.04C79.84 15.688 79.51 15.424 79.114 15.248C78.784 15.094 78.454 14.984 78.124 14.918C77.816 14.83 77.42 14.786 76.936 14.786C75.66 14.786 74.494 15.127 73.438 15.809C72.404 16.491 71.568 17.624 70.93 19.208C70.314 20.77 70.006 22.915 70.006 25.643C70.006 28.349 70.303 30.494 70.897 32.078C71.491 33.64 72.294 34.762 73.306 35.444C74.34 36.104 75.495 36.434 76.771 36.434C77.475 36.434 78.036 36.39 78.454 36.302C78.872 36.192 79.29 36.038 79.708 35.84C80.126 35.664 80.445 35.411 80.665 35.081C80.885 34.729 81.083 34.355 81.259 33.959L82.711 30.725H83.041L82.942 35.444C82.018 35.928 80.984 36.324 79.84 36.632C78.696 36.94 77.442 37.094 76.078 37.094ZM92.8928 36.995C91.2208 36.995 89.7688 36.654 88.5368 35.972C87.3048 35.268 86.3478 34.278 85.6658 33.002C85.0058 31.726 84.6758 30.23 84.6758 28.514C84.6758 26.798 85.0278 25.313 85.7318 24.059C86.4578 22.805 87.4368 21.837 88.6688 21.155C89.9228 20.473 91.3308 20.132 92.8928 20.132C94.4548 20.132 95.8518 20.473 97.0838 21.155C98.3158 21.815 99.2838 22.772 99.9878 24.026C100.714 25.28 101.077 26.776 101.077 28.514C101.077 30.252 100.736 31.759 100.054 33.035C99.3938 34.289 98.4478 35.268 97.2158 35.972C96.0058 36.654 94.5648 36.995 92.8928 36.995ZM92.8928 36.335C93.6628 36.335 94.2788 36.115 94.7408 35.675C95.2028 35.235 95.5328 34.454 95.7308 33.332C95.9508 32.21 96.0608 30.626 96.0608 28.58C96.0608 26.512 95.9508 24.917 95.7308 23.795C95.5328 22.673 95.2028 21.892 94.7408 21.452C94.2788 21.012 93.6628 20.792 92.8928 20.792C92.1228 20.792 91.4958 21.012 91.0118 21.452C90.5498 21.892 90.2088 22.673 89.9888 23.795C89.7908 24.917 89.6918 26.512 89.6918 28.58C89.6918 30.626 89.7908 32.21 89.9888 33.332C90.2088 34.454 90.5498 35.235 91.0118 35.675C91.4958 36.115 92.1228 36.335 92.8928 36.335ZM108.37 36.995C107.512 36.995 106.72 36.83 105.994 36.5C105.29 36.17 104.729 35.642 104.311 34.916C103.915 34.168 103.728 33.189 103.75 31.979L103.849 23.498C103.849 22.992 103.761 22.629 103.585 22.409C103.409 22.189 103.134 22.035 102.76 21.947L102.364 21.815V21.485L108.271 20.33L108.601 20.66L108.436 25.346V33.299C108.436 34.003 108.634 34.52 109.03 34.85C109.448 35.18 109.965 35.345 110.581 35.345C111.197 35.345 111.747 35.257 112.231 35.081C112.715 34.905 113.199 34.641 113.683 34.289L113.815 23.531C113.815 23.025 113.738 22.673 113.584 22.475C113.43 22.255 113.144 22.101 112.726 22.013L112.396 21.914V21.584L118.171 20.33L118.501 20.66L118.402 25.346V34.289C118.402 34.773 118.468 35.147 118.6 35.411C118.732 35.675 119.018 35.895 119.458 36.071L119.788 36.17V36.5L114.013 36.83L113.716 34.883C112.99 35.477 112.198 35.983 111.34 36.401C110.504 36.797 109.514 36.995 108.37 36.995ZM121.121 36.5V36.17L121.616 36.038C122.056 35.906 122.353 35.708 122.507 35.444C122.683 35.18 122.771 34.839 122.771 34.421V24.092C122.771 23.608 122.683 23.256 122.507 23.036C122.353 22.794 122.056 22.629 121.616 22.541L121.121 22.409V22.079L126.797 20.165L127.127 20.495L127.424 23.333V23.597C127.732 22.981 128.128 22.42 128.612 21.914C129.118 21.386 129.668 20.957 130.262 20.627C130.878 20.297 131.483 20.132 132.077 20.132C132.913 20.132 133.551 20.363 133.991 20.825C134.431 21.287 134.651 21.87 134.651 22.574C134.651 23.322 134.431 23.905 133.991 24.323C133.573 24.719 133.067 24.917 132.473 24.917C131.549 24.917 130.735 24.455 130.031 23.531L129.965 23.465C129.745 23.157 129.492 22.992 129.206 22.97C128.92 22.926 128.656 23.058 128.414 23.366C128.194 23.564 128.007 23.806 127.853 24.092C127.721 24.356 127.589 24.664 127.457 25.016V34.223C127.457 35.103 127.842 35.653 128.612 35.873L129.668 36.17V36.5H121.121ZM141.074 36.995C139.996 36.995 139.028 36.863 138.17 36.599C137.312 36.357 136.52 36.049 135.794 35.675L135.827 31.748H136.157L137.279 33.728C137.763 34.608 138.291 35.268 138.863 35.708C139.457 36.126 140.205 36.335 141.107 36.335C142.163 36.335 143.01 36.104 143.648 35.642C144.308 35.158 144.638 34.52 144.638 33.728C144.638 33.002 144.407 32.408 143.945 31.946C143.483 31.484 142.625 31.066 141.371 30.692L139.985 30.263C138.643 29.867 137.587 29.251 136.817 28.415C136.047 27.579 135.662 26.556 135.662 25.346C135.662 23.894 136.234 22.662 137.378 21.65C138.522 20.638 140.161 20.132 142.295 20.132C143.153 20.132 143.956 20.231 144.704 20.429C145.474 20.605 146.211 20.88 146.915 21.254L146.717 24.818H146.387L145.232 22.772C144.814 22.046 144.396 21.54 143.978 21.254C143.582 20.946 142.977 20.792 142.163 20.792C141.415 20.792 140.711 21.001 140.051 21.419C139.391 21.837 139.061 22.431 139.061 23.201C139.061 23.949 139.336 24.543 139.886 24.983C140.458 25.423 141.294 25.83 142.394 26.204L143.879 26.633C145.463 27.117 146.596 27.788 147.278 28.646C147.96 29.482 148.301 30.494 148.301 31.682C148.301 33.288 147.663 34.575 146.387 35.543C145.133 36.511 143.362 36.995 141.074 36.995ZM158.021 20.132C159.451 20.132 160.672 20.429 161.684 21.023C162.696 21.595 163.466 22.387 163.994 23.399C164.544 24.389 164.819 25.522 164.819 26.798C164.819 27.04 164.808 27.293 164.786 27.557C164.764 27.799 164.72 28.019 164.654 28.217H154.82C154.842 30.593 155.26 32.309 156.074 33.365C156.91 34.399 158.142 34.916 159.77 34.916C160.87 34.916 161.761 34.74 162.443 34.388C163.125 34.036 163.763 33.519 164.357 32.837L164.687 33.134C164.005 34.344 163.092 35.29 161.948 35.972C160.826 36.654 159.473 36.995 157.889 36.995C156.327 36.995 154.941 36.665 153.731 36.005C152.521 35.323 151.575 34.355 150.893 33.101C150.211 31.847 149.87 30.351 149.87 28.613C149.87 26.809 150.266 25.28 151.058 24.026C151.85 22.75 152.862 21.782 154.094 21.122C155.348 20.462 156.657 20.132 158.021 20.132ZM157.922 20.792C157.284 20.792 156.734 20.99 156.272 21.386C155.832 21.76 155.48 22.442 155.216 23.432C154.974 24.4 154.842 25.775 154.82 27.557H160.463C160.683 25.159 160.595 23.432 160.199 22.376C159.803 21.32 159.044 20.792 157.922 20.792ZM177.882 37.094C175.748 37.094 173.812 36.665 172.074 35.807C170.358 34.927 168.994 33.629 167.982 31.913C166.97 30.197 166.464 28.096 166.464 25.61C166.464 23.718 166.772 22.057 167.388 20.627C168.004 19.197 168.84 17.998 169.896 17.03C170.974 16.062 172.206 15.336 173.592 14.852C175 14.368 176.485 14.126 178.047 14.126C179.301 14.126 180.456 14.269 181.512 14.555C182.568 14.841 183.558 15.237 184.482 15.743L184.614 19.802H184.284L182.634 17.162C182.414 16.744 182.172 16.37 181.908 16.04C181.644 15.688 181.314 15.424 180.918 15.248C180.588 15.094 180.258 14.984 179.928 14.918C179.62 14.83 179.224 14.786 178.74 14.786C177.464 14.786 176.298 15.127 175.242 15.809C174.208 16.491 173.372 17.624 172.734 19.208C172.118 20.77 171.81 22.915 171.81 25.643C171.81 28.349 172.107 30.494 172.701 32.078C173.295 33.64 174.098 34.762 175.11 35.444C176.144 36.104 177.299 36.434 178.575 36.434C179.279 36.434 179.84 36.39 180.258 36.302C180.676 36.192 181.094 36.038 181.512 35.84C181.93 35.664 182.249 35.411 182.469 35.081C182.689 34.729 182.887 34.355 183.063 33.959L184.515 30.725H184.845L184.746 35.444C183.822 35.928 182.788 36.324 181.644 36.632C180.5 36.94 179.246 37.094 177.882 37.094ZM186.348 36.5V36.17L186.843 36.038C187.283 35.906 187.58 35.708 187.734 35.444C187.91 35.18 187.998 34.839 187.998 34.421V24.092C187.998 23.608 187.91 23.256 187.734 23.036C187.58 22.794 187.283 22.629 186.843 22.541L186.348 22.409V22.079L192.024 20.165L192.354 20.495L192.651 23.333V23.597C192.959 22.981 193.355 22.42 193.839 21.914C194.345 21.386 194.895 20.957 195.489 20.627C196.105 20.297 196.71 20.132 197.304 20.132C198.14 20.132 198.778 20.363 199.218 20.825C199.658 21.287 199.878 21.87 199.878 22.574C199.878 23.322 199.658 23.905 199.218 24.323C198.8 24.719 198.294 24.917 197.7 24.917C196.776 24.917 195.962 24.455 195.258 23.531L195.192 23.465C194.972 23.157 194.719 22.992 194.433 22.97C194.147 22.926 193.883 23.058 193.641 23.366C193.421 23.564 193.234 23.806 193.08 24.092C192.948 24.356 192.816 24.664 192.684 25.016V34.223C192.684 35.103 193.069 35.653 193.839 35.873L194.895 36.17V36.5H186.348ZM205.023 36.995C203.747 36.995 202.669 36.632 201.789 35.906C200.931 35.18 200.502 34.135 200.502 32.771C200.502 31.737 201.03 30.791 202.086 29.933C203.142 29.053 204.803 28.393 207.069 27.953C207.421 27.887 207.817 27.821 208.257 27.755C208.697 27.667 209.159 27.579 209.643 27.491V24.884C209.643 23.388 209.456 22.343 209.082 21.749C208.73 21.133 208.169 20.825 207.399 20.825C206.871 20.825 206.453 21.001 206.145 21.353C205.837 21.683 205.639 22.266 205.551 23.102L205.485 23.465C205.441 24.411 205.21 25.104 204.792 25.544C204.374 25.984 203.857 26.204 203.241 26.204C202.669 26.204 202.196 26.028 201.822 25.676C201.448 25.324 201.261 24.851 201.261 24.257C201.261 23.355 201.569 22.596 202.185 21.98C202.823 21.364 203.659 20.902 204.693 20.594C205.727 20.286 206.849 20.132 208.059 20.132C210.017 20.132 211.524 20.616 212.58 21.584C213.658 22.53 214.197 24.081 214.197 26.237V33.53C214.197 34.52 214.659 35.015 215.583 35.015H216.309L216.606 35.279C216.188 35.807 215.726 36.214 215.22 36.5C214.736 36.786 214.043 36.929 213.141 36.929C212.173 36.929 211.403 36.709 210.831 36.269C210.281 35.807 209.918 35.202 209.742 34.454C209.082 35.158 208.4 35.763 207.696 36.269C207.014 36.753 206.123 36.995 205.023 36.995ZM207.036 34.982C207.476 34.982 207.883 34.883 208.257 34.685C208.653 34.465 209.115 34.135 209.643 33.695V28.151C209.423 28.195 209.203 28.239 208.983 28.283C208.763 28.327 208.51 28.371 208.224 28.415C207.212 28.679 206.398 29.13 205.782 29.768C205.188 30.384 204.891 31.22 204.891 32.276C204.891 33.178 205.1 33.86 205.518 34.322C205.936 34.762 206.442 34.982 207.036 34.982ZM217.351 36.5V36.17L217.78 36.071C218.198 35.961 218.528 35.774 218.77 35.51C219.012 35.224 219.133 34.861 219.133 34.421C219.133 33.607 219.133 32.804 219.133 32.012C219.155 31.198 219.166 30.384 219.166 29.57V21.287H217.318V20.924L218.044 20.792C218.484 20.748 218.803 20.594 219.001 20.33C219.199 20.066 219.342 19.703 219.43 19.241C219.65 18.383 219.969 17.635 220.387 16.997C220.827 16.337 221.322 15.732 221.872 15.182C222.708 14.39 223.588 13.84 224.512 13.532C225.458 13.202 226.382 13.037 227.284 13.037C228.164 13.037 228.967 13.224 229.693 13.598C230.419 13.95 230.782 14.544 230.782 15.38C230.782 15.974 230.606 16.447 230.254 16.799C229.902 17.129 229.407 17.294 228.769 17.294C228.241 17.294 227.757 17.151 227.317 16.865C226.877 16.579 226.448 16.073 226.03 15.347L225.568 14.786C225.326 14.478 225.084 14.335 224.842 14.357C224.6 14.357 224.424 14.533 224.314 14.885C224.16 15.655 224.039 16.557 223.951 17.591C223.885 18.625 223.852 19.637 223.852 20.627H227.548V21.287H223.852V34.355C223.852 35.191 224.292 35.73 225.172 35.972L225.997 36.17V36.5H217.351ZM234.867 36.995C233.459 36.995 232.359 36.643 231.567 35.939C230.797 35.235 230.412 34.113 230.412 32.573V21.287H228.135V20.957L228.927 20.825C229.609 20.671 230.192 20.451 230.676 20.165C231.182 19.879 231.677 19.494 232.161 19.01L234.867 16.007H235.197L235.098 20.627H238.794V21.287H235.065V33.167C235.065 33.937 235.23 34.52 235.56 34.916C235.912 35.312 236.352 35.51 236.88 35.51C237.342 35.51 237.749 35.4 238.101 35.18C238.453 34.938 238.805 34.619 239.157 34.223L239.487 34.553C239.047 35.301 238.442 35.895 237.672 36.335C236.902 36.775 235.967 36.995 234.867 36.995ZM247.311 36.5V36.17L248.136 35.873C248.576 35.697 248.917 35.488 249.159 35.246C249.401 34.982 249.599 34.619 249.753 34.157L256.551 14.654H259.356L266.055 34.289C266.231 34.773 266.429 35.147 266.649 35.411C266.869 35.653 267.21 35.862 267.672 36.038L268.068 36.17V36.5H259.686V36.17L260.181 36.005C260.643 35.829 260.918 35.587 261.006 35.279C261.116 34.949 261.105 34.564 260.973 34.124L259.422 29.372H252.096L250.512 34.025C250.358 34.509 250.303 34.894 250.347 35.18C250.413 35.466 250.677 35.697 251.139 35.873L251.865 36.17V36.5H247.311ZM252.327 28.712H259.224L255.891 18.449L252.327 28.712ZM269.107 36.5V36.17L269.767 35.906C270.207 35.752 270.493 35.543 270.625 35.279C270.779 35.015 270.856 34.663 270.856 34.223V16.997C270.856 16.557 270.79 16.205 270.658 15.941C270.526 15.677 270.229 15.468 269.767 15.314L269.107 15.05V14.72H277.588V15.05L276.928 15.314C276.488 15.468 276.191 15.677 276.037 15.941C275.905 16.205 275.839 16.557 275.839 16.997V34.223C275.839 34.663 275.905 35.015 276.037 35.279C276.191 35.521 276.488 35.73 276.928 35.906L277.588 36.17V36.5H269.107Z" fill="#1D1333"/>
</g>
<defs>
<clipPath id="clip0_10_388">
<rect width="232" height="50" fill="white" transform="translate(65)"/>
</clipPath>
</defs>
</svg>
