<svg width="188" height="48" viewBox="0 0 188 48" fill="none" xmlns="http://www.w3.org/2000/svg">
<path d="M16.8197 12.5741C14.3934 15.5051 14.3934 20.2571 16.8197 23.188L25.6067 33.8019C28.0331 36.7327 31.9671 36.7327 34.3935 33.8019L43.1802 23.1879C45.6066 20.257 45.6066 15.505 43.1802 12.574L38.9876 7.50978C37.6411 11.7257 34.2544 14.7166 30.2894 14.7166C26.1663 14.7166 22.6686 11.4826 21.44 7C21.3635 7.08796 21.2879 7.17703 21.2132 7.26718L16.8197 12.5741Z" fill="#983903"/>
<path d="M20.6668 16C20.2361 16.8211 20 17.7132 20 18.6459C20 22.7074 24.4772 26 30 26C35.5228 26 40 22.7074 40 18.6459C40 17.8379 39.8228 17.0603 39.4954 16.333C34.272 19.987 26.0091 19.9289 20.8824 16.1586L20.6668 16Z" fill="#16130F"/>
<g filter="url(#filter0_d_1_2)">
<path d="M64.6136 21.7273H61.4091C61.3864 21.4621 61.3258 21.2216 61.2273 21.0057C61.1326 20.7898 61 20.6042 60.8295 20.4489C60.6629 20.2898 60.4602 20.1686 60.2216 20.0852C59.983 19.9981 59.7121 19.9545 59.4091 19.9545C58.8788 19.9545 58.4299 20.0833 58.0625 20.3409C57.6989 20.5985 57.4223 20.9678 57.233 21.4489C57.0473 21.9299 56.9545 22.5076 56.9545 23.1818C56.9545 23.8939 57.0492 24.4905 57.2386 24.9716C57.4318 25.4489 57.7102 25.8087 58.0739 26.0511C58.4375 26.2898 58.875 26.4091 59.3864 26.4091C59.678 26.4091 59.9394 26.3731 60.1705 26.3011C60.4015 26.2254 60.6023 26.1174 60.7727 25.9773C60.9432 25.8371 61.0814 25.6686 61.1875 25.4716C61.2973 25.2708 61.3712 25.0455 61.4091 24.7955L64.6136 24.8182C64.5758 25.3106 64.4375 25.8125 64.1989 26.3239C63.9602 26.8314 63.6212 27.3011 63.1818 27.733C62.7462 28.161 62.2064 28.5057 61.5625 28.767C60.9186 29.0284 60.1705 29.1591 59.3182 29.1591C58.25 29.1591 57.2917 28.9299 56.4432 28.4716C55.5985 28.0133 54.9299 27.339 54.4375 26.4489C53.9489 25.5587 53.7045 24.4697 53.7045 23.1818C53.7045 21.8864 53.9545 20.7955 54.4545 19.9091C54.9545 19.0189 55.6288 18.3466 56.4773 17.892C57.3258 17.4337 58.2727 17.2045 59.3182 17.2045C60.053 17.2045 60.7292 17.3049 61.3466 17.5057C61.964 17.7064 62.5057 18 62.9716 18.3864C63.4375 18.7689 63.8125 19.2405 64.0966 19.8011C64.3807 20.3617 64.553 21.0038 64.6136 21.7273ZM70.2969 29.1591C69.3499 29.1591 68.5393 28.9716 67.8651 28.5966C67.1908 28.2178 66.6738 27.6913 66.3139 27.017C65.9541 26.339 65.7741 25.553 65.7741 24.6591C65.7741 23.7652 65.9541 22.9811 66.3139 22.3068C66.6738 21.6288 67.1908 21.1023 67.8651 20.7273C68.5393 20.3485 69.3499 20.1591 70.2969 20.1591C71.2438 20.1591 72.0545 20.3485 72.7287 20.7273C73.4029 21.1023 73.92 21.6288 74.2798 22.3068C74.6397 22.9811 74.8196 23.7652 74.8196 24.6591C74.8196 25.553 74.6397 26.339 74.2798 27.017C73.92 27.6913 73.4029 28.2178 72.7287 28.5966C72.0545 28.9716 71.2438 29.1591 70.2969 29.1591ZM70.3196 26.8409C70.5848 26.8409 70.8139 26.7519 71.0071 26.5739C71.2003 26.3958 71.3499 26.142 71.456 25.8125C71.562 25.483 71.6151 25.0909 71.6151 24.6364C71.6151 24.178 71.562 23.786 71.456 23.4602C71.3499 23.1307 71.2003 22.8769 71.0071 22.6989C70.8139 22.5208 70.5848 22.4318 70.3196 22.4318C70.0393 22.4318 69.7988 22.5208 69.598 22.6989C69.3973 22.8769 69.2438 23.1307 69.1378 23.4602C69.0317 23.786 68.9787 24.178 68.9787 24.6364C68.9787 25.0909 69.0317 25.483 69.1378 25.8125C69.2438 26.142 69.3973 26.3958 69.598 26.5739C69.7988 26.7519 70.0393 26.8409 70.3196 26.8409ZM81.7514 25.1818V20.2727H84.8878V29H81.9105V27.3409H81.8196C81.6302 27.8977 81.2988 28.3333 80.8253 28.6477C80.3518 28.9583 79.7893 29.1136 79.1378 29.1136C78.5279 29.1136 77.9938 28.9735 77.5355 28.6932C77.081 28.4129 76.7268 28.0265 76.473 27.5341C76.223 27.0417 76.0961 26.4773 76.0923 25.8409V20.2727H79.2287V25.1818C79.2325 25.6136 79.3423 25.9527 79.5582 26.1989C79.7779 26.4451 80.0848 26.5682 80.4787 26.5682C80.7401 26.5682 80.9654 26.5133 81.1548 26.4034C81.348 26.2898 81.4957 26.1307 81.598 25.9261C81.7041 25.7178 81.7552 25.4697 81.7514 25.1818ZM86.483 29V20.2727H89.5284V21.9318H89.6193C89.7784 21.3182 90.0303 20.8693 90.375 20.5852C90.7235 20.3011 91.1307 20.1591 91.5966 20.1591C91.733 20.1591 91.8674 20.1705 92 20.1932C92.1364 20.2121 92.267 20.2405 92.392 20.2784V22.9545C92.2367 22.9015 92.0455 22.8617 91.8182 22.8352C91.5909 22.8087 91.3958 22.7955 91.233 22.7955C90.9261 22.7955 90.6496 22.8655 90.4034 23.0057C90.161 23.142 89.9697 23.3352 89.8295 23.5852C89.6894 23.8314 89.6193 24.1212 89.6193 24.4545V29H86.483ZM101.398 23.1136H98.5114C98.4962 22.9356 98.4337 22.7822 98.3239 22.6534C98.214 22.5246 98.072 22.4261 97.8977 22.358C97.7273 22.286 97.5379 22.25 97.3295 22.25C97.0606 22.25 96.8295 22.2992 96.6364 22.3977C96.4432 22.4962 96.3485 22.6364 96.3523 22.8182C96.3485 22.947 96.4034 23.0663 96.517 23.1761C96.6345 23.286 96.8598 23.3712 97.1932 23.4318L98.9659 23.75C99.8598 23.9129 100.525 24.1875 100.96 24.5739C101.4 24.9564 101.621 25.4697 101.625 26.1136C101.621 26.7348 101.436 27.2746 101.068 27.733C100.705 28.1875 100.206 28.5398 99.5739 28.7898C98.9451 29.036 98.2273 29.1591 97.4205 29.1591C96.0871 29.1591 95.0436 28.8864 94.2898 28.3409C93.5398 27.7955 93.1212 27.0758 93.0341 26.1818H96.1477C96.1894 26.4583 96.3258 26.6723 96.5568 26.8239C96.7917 26.9716 97.0871 27.0455 97.4432 27.0455C97.7311 27.0455 97.9678 26.9962 98.1534 26.8977C98.3428 26.7992 98.4394 26.6591 98.4432 26.4773C98.4394 26.3106 98.3561 26.178 98.1932 26.0795C98.0341 25.9811 97.7841 25.9015 97.4432 25.8409L95.8977 25.5682C95.0076 25.4129 94.3409 25.1174 93.8977 24.6818C93.4545 24.2462 93.2348 23.6856 93.2386 23C93.2348 22.3939 93.3939 21.8807 93.7159 21.4602C94.0417 21.036 94.5057 20.714 95.108 20.4943C95.714 20.2708 96.4318 20.1591 97.2614 20.1591C98.5227 20.1591 99.517 20.4205 100.244 20.9432C100.975 21.4659 101.36 22.1894 101.398 23.1136ZM107.009 29.1591C106.077 29.1591 105.274 28.9811 104.599 28.625C103.929 28.2652 103.412 27.75 103.048 27.0795C102.688 26.4053 102.509 25.5985 102.509 24.6591C102.509 23.7576 102.69 22.9697 103.054 22.2955C103.418 21.6212 103.931 21.0966 104.594 20.7216C105.257 20.3466 106.039 20.1591 106.94 20.1591C107.599 20.1591 108.196 20.2614 108.73 20.4659C109.264 20.6705 109.721 20.9678 110.099 21.358C110.478 21.7443 110.77 22.214 110.974 22.767C111.179 23.3201 111.281 23.9432 111.281 24.6364V25.3636H103.486V23.6364H108.395C108.391 23.3864 108.327 23.1667 108.202 22.9773C108.08 22.7841 107.916 22.6345 107.707 22.5284C107.503 22.4186 107.27 22.3636 107.009 22.3636C106.755 22.3636 106.522 22.4186 106.31 22.5284C106.098 22.6345 105.927 22.7822 105.798 22.9716C105.673 23.161 105.607 23.3826 105.599 23.6364V25.5C105.599 25.7803 105.658 26.0303 105.776 26.25C105.893 26.4697 106.062 26.642 106.281 26.767C106.501 26.892 106.766 26.9545 107.077 26.9545C107.293 26.9545 107.49 26.9242 107.668 26.8636C107.849 26.803 108.005 26.7159 108.134 26.6023C108.262 26.4848 108.357 26.3447 108.418 26.1818H111.281C111.183 26.7879 110.95 27.3144 110.582 27.7614C110.215 28.2045 109.728 28.5492 109.122 28.7955C108.52 29.0379 107.815 29.1591 107.009 29.1591ZM123.379 21.7273H120.175C120.152 21.4621 120.091 21.2216 119.993 21.0057C119.898 20.7898 119.766 20.6042 119.595 20.4489C119.429 20.2898 119.226 20.1686 118.987 20.0852C118.749 19.9981 118.478 19.9545 118.175 19.9545C117.644 19.9545 117.196 20.0833 116.828 20.3409C116.464 20.5985 116.188 20.9678 115.999 21.4489C115.813 21.9299 115.72 22.5076 115.72 23.1818C115.72 23.8939 115.815 24.4905 116.004 24.9716C116.197 25.4489 116.476 25.8087 116.839 26.0511C117.203 26.2898 117.641 26.4091 118.152 26.4091C118.444 26.4091 118.705 26.3731 118.936 26.3011C119.167 26.2254 119.368 26.1174 119.538 25.9773C119.709 25.8371 119.847 25.6686 119.953 25.4716C120.063 25.2708 120.137 25.0455 120.175 24.7955L123.379 24.8182C123.341 25.3106 123.203 25.8125 122.964 26.3239C122.726 26.8314 122.387 27.3011 121.947 27.733C121.512 28.161 120.972 28.5057 120.328 28.767C119.684 29.0284 118.936 29.1591 118.084 29.1591C117.016 29.1591 116.057 28.9299 115.209 28.4716C114.364 28.0133 113.696 27.339 113.203 26.4489C112.714 25.5587 112.47 24.4697 112.47 23.1818C112.47 21.8864 112.72 20.7955 113.22 19.9091C113.72 19.0189 114.394 18.3466 115.243 17.892C116.091 17.4337 117.038 17.2045 118.084 17.2045C118.819 17.2045 119.495 17.3049 120.112 17.5057C120.73 17.7064 121.271 18 121.737 18.3864C122.203 18.7689 122.578 19.2405 122.862 19.8011C123.146 20.3617 123.319 21.0038 123.379 21.7273ZM124.858 29V20.2727H127.903V21.9318H127.994C128.153 21.3182 128.405 20.8693 128.75 20.5852C129.098 20.3011 129.506 20.1591 129.972 20.1591C130.108 20.1591 130.242 20.1705 130.375 20.1932C130.511 20.2121 130.642 20.2405 130.767 20.2784V22.9545C130.612 22.9015 130.42 22.8617 130.193 22.8352C129.966 22.8087 129.771 22.7955 129.608 22.7955C129.301 22.7955 129.025 22.8655 128.778 23.0057C128.536 23.142 128.345 23.3352 128.205 23.5852C128.064 23.8314 127.994 24.1212 127.994 24.4545V29H124.858ZM133.821 29.1364C133.264 29.1364 132.772 29.0455 132.344 28.8636C131.92 28.678 131.586 28.3977 131.344 28.0227C131.101 27.6477 130.98 27.1705 130.98 26.5909C130.98 26.1136 131.062 25.7064 131.224 25.3693C131.387 25.0284 131.615 24.75 131.906 24.5341C132.198 24.3182 132.537 24.1534 132.923 24.0398C133.313 23.9261 133.734 23.8523 134.185 23.8182C134.673 23.7803 135.065 23.7348 135.361 23.6818C135.66 23.625 135.876 23.5473 136.009 23.4489C136.141 23.3466 136.207 23.2121 136.207 23.0455V23.0227C136.207 22.7955 136.12 22.6212 135.946 22.5C135.772 22.3788 135.548 22.3182 135.276 22.3182C134.976 22.3182 134.732 22.3845 134.543 22.517C134.357 22.6458 134.245 22.8447 134.207 23.1136H131.321C131.359 22.5833 131.527 22.0947 131.827 21.6477C132.13 21.197 132.571 20.8371 133.151 20.5682C133.73 20.2955 134.454 20.1591 135.321 20.1591C135.946 20.1591 136.507 20.233 137.003 20.3807C137.499 20.5246 137.921 20.7273 138.27 20.9886C138.618 21.2462 138.884 21.5492 139.065 21.8977C139.251 22.2424 139.344 22.6174 139.344 23.0227V29H136.412V27.7727H136.344C136.17 28.0985 135.957 28.3617 135.707 28.5625C135.461 28.7633 135.179 28.9091 134.861 29C134.546 29.0909 134.2 29.1364 133.821 29.1364ZM134.844 27.1591C135.082 27.1591 135.306 27.1098 135.514 27.0114C135.726 26.9129 135.899 26.7708 136.031 26.5852C136.164 26.3996 136.23 26.1742 136.23 25.9091V25.1818C136.147 25.2159 136.058 25.2481 135.963 25.2784C135.872 25.3087 135.774 25.3371 135.668 25.3636C135.565 25.3902 135.455 25.4148 135.338 25.4375C135.224 25.4602 135.105 25.4811 134.98 25.5C134.738 25.5379 134.539 25.6004 134.384 25.6875C134.232 25.7708 134.118 25.875 134.043 26C133.971 26.1212 133.935 26.2576 133.935 26.4091C133.935 26.6515 134.02 26.8371 134.19 26.9659C134.361 27.0947 134.579 27.1591 134.844 27.1591ZM146.07 20.2727V22.5455H140.229V20.2727H146.07ZM141.342 29V20.0227C141.342 19.303 141.471 18.7064 141.729 18.233C141.986 17.7595 142.35 17.4053 142.82 17.1705C143.289 16.9356 143.842 16.8182 144.479 16.8182C144.876 16.8182 145.263 16.8485 145.638 16.9091C146.017 16.9697 146.297 17.0227 146.479 17.0682L146.024 19.3182C145.911 19.2841 145.778 19.2576 145.626 19.2386C145.475 19.2159 145.342 19.2045 145.229 19.2045C144.933 19.2045 144.734 19.267 144.632 19.392C144.53 19.517 144.479 19.6818 144.479 19.8864V29H141.342ZM152.484 20.2727V22.5455H146.734V20.2727H152.484ZM147.848 18.1818H150.984V26.1932C150.984 26.3144 151.005 26.4167 151.047 26.5C151.089 26.5795 151.153 26.6402 151.24 26.6818C151.327 26.7197 151.439 26.7386 151.575 26.7386C151.67 26.7386 151.78 26.7273 151.905 26.7045C152.034 26.6818 152.128 26.6629 152.189 26.6477L152.643 28.8523C152.503 28.8939 152.303 28.9451 152.041 29.0057C151.784 29.0663 151.477 29.1061 151.121 29.125C150.401 29.1629 149.797 29.089 149.308 28.9034C148.82 28.714 148.452 28.4167 148.206 28.0114C147.96 27.6061 147.84 27.0985 147.848 26.4886V18.1818ZM159.929 29H156.52L160.361 17.3636H164.679L168.52 29H165.111L162.565 20.5682H162.474L159.929 29ZM159.293 24.4091H165.702V26.7727H159.293V24.4091ZM172.8 17.3636V29H169.641V17.3636H172.8Z" fill="black"/>
</g>
<defs>
<filter id="filter0_d_1_2" x="49.7045" y="16.8182" width="127.095" height="20.3636" filterUnits="userSpaceOnUse" color-interpolation-filters="sRGB">
<feFlood flood-opacity="0" result="BackgroundImageFix"/>
<feColorMatrix in="SourceAlpha" type="matrix" values="0 0 0 0 0 0 0 0 0 0 0 0 0 0 0 0 0 0 127 0" result="hardAlpha"/>
<feOffset dy="4"/>
<feGaussianBlur stdDeviation="2"/>
<feComposite in2="hardAlpha" operator="out"/>
<feColorMatrix type="matrix" values="0 0 0 0 0 0 0 0 0 0 0 0 0 0 0 0 0 0 0.25 0"/>
<feBlend mode="normal" in2="BackgroundImageFix" result="effect1_dropShadow_1_2"/>
<feBlend mode="normal" in="SourceGraphic" in2="effect1_dropShadow_1_2" result="shape"/>
</filter>
</defs>
</svg>
